# xmcd
#
# Track frame offsets:
#	150
#	13345
#	23699
#	42963
#	55584
#	69739
#	83785
#	98184
#	113237
#	126655
#	143719
#	157570
#	175886
#	192557
#	209445
#	226574
#	241402
#
# Disc length: 3393 seconds
#
# Revision: 1
# Processed by: cddbd v1.5.2PL0 Copyright (c) Steve Scherf et al.
# Submitted via: audiograbber 1.82.02
#
DISCID=e20d3f11
DTITLE=Various Artist - Country Radio - September 2014
DYEAR=2014
DGENRE=Country
TTITLE0=Dean Alexander - Live A Little
TTITLE1=Dylan Scott - Mmm, Mmm, Mmm
TTITLE2=Luke Bryan - Roller Coaster
TTITLE3=Kristian Bush - Trailer Hitch
TTITLE4=American Young - Wasn't Gonna Drink Tonight
TTITLE5=Jerrod Niemann - Buzz Back Girl
TTITLE6=Sara Evan and Isaac Slade - Can't Stop Loving You
TTITLE7=Canaan Smith - Love You Like That
TTITLE8=Tyler Farr - Whiskey In My Water (Top Shelf Mix)
TTITLE9=Brett Eldredge - Mean To Me
TTITLE10=Cadillac Three - Party Like You
TTITLE11=Chase Bryant - Take It On Back
TTITLE12=Colt Ford - Workin'  On
TTITLE13=Florida Georgia Line - Dirt
TTITLE14=Justin Moore (Ft. Vince Neil) - Home Sweet Home
TTITLE15=Native Run - Good On You
TTITLE16=Daniel Lee - Backwood Tobacco
EXTD=
EXTT0=
EXTT1=
EXTT2=
EXTT3=
EXTT4=
EXTT5=
EXTT6=
EXTT7=
EXTT8=
EXTT9=
EXTT10=
EXTT11=
EXTT12=
EXTT13=
EXTT14=
EXTT15=
EXTT16=
PLAYORDER=
